# xmcd
#
# Track frame offsets: 
#        150
#        16324
#        29936
#        51530
#        68179
#        87094
#        100973
#        126564
#        145756
#        161187
#        185254
#        207374
#        223257
#        236870
#        257866
#        275181
#        291863
#
# Disc length: 3908 seconds
#
# Revision: 0
# Processed by: cddbd v1.5.1PL2 Copyright (c) Steve Scherf et al.
# Submitted via: ExactAudioCopy v0.95a5
#
DISCID=1f0f4211
DTITLE=Lauterbach et al - Play It! Eric Clapton [CD2]
DYEAR=2003
DGENRE=Instrumental
TTITLE0=Tulse Time - Jam
TTITLE1=After Midnight - Jam
TTITLE2=Pretending - Jam
TTITLE3=Cocaine - Jam
TTITLE4=Can't Stand It -Jam
TTITLE5=Forever Man -Jam
TTITLE6=My Father's Eyes -Jam
TTITLE7=Layla -Jam
TTITLE8=I've Got A Rock'n'Roll Heart -Jam
TTITLE9=Bad Laove -Jam
TTITLE10=Behind The Mask -Jam
TTITLE11=Lay Down Sally -Jam
TTITLE12=Promises -Jam
TTITLE13=I Shot The Sheriff -Jam
TTITLE14=Change The World -Jam
TTITLE15=Wonderful Tonight
TTITLE16=Tuning - A
EXTD=
EXTT0=
EXTT1=
EXTT2=
EXTT3=
EXTT4=
EXTT5=
EXTT6=
EXTT7=
EXTT8=
EXTT9=
EXTT10=
EXTT11=
EXTT12=
EXTT13=
EXTT14=
EXTT15=
EXTT16=
PLAYORDER=
